<?xml version="1.0" encoding="UTF-8"?>
<svg width="446px" height="76px" viewBox="0 0 446 76" version="1.1" 
    xmlns="http://www.w3.org/2000/svg" 
    xmlns:xlink="http://www.w3.org/1999/xlink">
    <title>umi-plugin-mobx</title>
    <g id="My-Design" stroke="none" stroke-width="1" fill="none" fill-rule="evenodd">
        <g id="Group">
            <path d="M16.444,34.56 L16.444,49.968 C16.444,55.4880276 18.3639808,58.248 22.204,58.248 C26.0440192,58.248 27.964,55.4880276 27.964,49.968 L27.964,34.56 L34.948,34.56 L34.948,51.264 C34.948,59.7120422 30.7000425,63.936 22.204,63.936 C13.7079575,63.936 9.46,59.7120422 9.46,51.264 L9.46,34.56 L16.444,34.56 Z M47.62,37.08 C49.3960089,34.7759885 52.1319815,33.624 55.828,33.624 C59.0440161,33.624 61.5879906,35.1119851 63.46,38.088 C65.2840091,35.1119851 68.2359796,33.624 72.316,33.624 C78.31603,33.624 81.316,37.5119611 81.316,45.288 L81.316,63 L74.404,63 L74.404,48.024 C74.404,41.9759698 72.7480166,38.952 69.436,38.952 C66.1239834,38.952 64.468,42.3119664 64.468,49.032 L64.468,63 L57.484,63 L57.484,48.6 C57.484,42.1679678 56.0200146,38.952 53.092,38.952 C49.4439818,38.952 47.62,42.3119664 47.62,49.032 L47.62,63 L40.636,63 L40.636,34.56 L47.62,34.56 L47.62,37.08 Z M95.716,22.608 C95.716,23.7120055 95.3080041,24.6719959 94.492,25.488 C93.6759959,26.3040041 92.7160055,26.712 91.612,26.712 C90.5079945,26.712 89.5480041,26.3040041 88.732,25.488 C87.9159959,24.6719959 87.508,23.7120055 87.508,22.608 C87.508,21.5039945 87.9159959,20.5440041 88.732,19.728 C89.5480041,18.9119959 90.5079945,18.504 91.612,18.504 C92.7160055,18.504 93.6759959,18.9119959 94.492,19.728 C95.3080041,20.5440041 95.716,21.5039945 95.716,22.608 Z M95.14,63 L88.156,63 L88.156,34.56 L95.14,34.56 L95.14,63 Z M115.588,41.112 L115.588,47.736 L101.476,47.736 L101.476,41.112 L115.588,41.112 Z M127.972,37.152 C129.98801,34.7999882 132.98798,33.624 136.972,33.624 C140.716019,33.624 143.823988,35.1119851 146.296,38.088 C148.768012,41.0640149 150.004,44.5679798 150.004,48.6 C150.004,52.9680218 148.780012,56.6159854 146.332,59.544 C143.883988,62.4720146 140.716019,63.936 136.828,63.936 C132.651979,63.936 129.748008,62.736012 128.116,60.336 L127.972,75.024 L120.988,75.024 L120.988,34.56 L127.972,34.56 L127.972,37.152 Z M142.876,48.744 C142.876,46.2959878 142.180007,44.172009 140.788,42.372 C139.395993,40.571991 137.476012,39.672 135.028,39.672 C132.771989,39.672 130.900007,40.5839909 129.412,42.408 C127.923993,44.2320091 127.18,46.3319881 127.18,48.708 C127.18,51.0840119 127.971992,53.2079906 129.556,55.08 C131.140008,56.9520094 132.96399,57.888 135.028,57.888 C137.476012,57.888 139.395993,57.0240086 140.788,55.296 C142.180007,53.5679914 142.876,51.3840132 142.876,48.744 Z M161.308,63 L154.324,63 L154.324,13.824 L161.308,13.824 L161.308,63 Z M174.412,34.56 L174.412,49.968 C174.412,55.4880276 176.331981,58.248 180.172,58.248 C184.012019,58.248 185.932,55.4880276 185.932,49.968 L185.932,34.56 L192.916,34.56 L192.916,51.264 C192.916,59.7120422 188.668042,63.936 180.172,63.936 C171.675958,63.936 167.428,59.7120422 167.428,51.264 L167.428,34.56 L174.412,34.56 Z M225.676,60.552 C225.676,70.2960487 221.140045,75.168 212.068,75.168 C208.03598,75.168 204.628014,74.0760109 201.844,71.892 C199.059986,69.7079891 197.668,66.8640175 197.668,63.36 L205.084,63.36 C205.084,64.752007 205.779993,66.1199933 207.172,67.464 C208.564007,68.8080067 210.123991,69.48 211.852,69.48 C216.412023,69.48 218.692,66.7440274 218.692,61.272 L218.692,59.472 C216.72399,61.9680125 213.73602,63.216 209.728,63.216 C205.71998,63.216 202.576011,61.8240139 200.296,59.04 C198.015989,56.2559861 196.876,52.8480202 196.876,48.816 C196.876,44.4479782 198.099988,40.8000146 200.548,37.872 C202.996012,34.9439854 206.17598,33.48 210.088,33.48 C214.00002,33.48 216.867991,34.7039878 218.692,37.152 L218.692,34.416 L225.676,34.416 L225.676,60.552 Z M219.7,48.168 C219.7,45.575987 218.980007,43.4880079 217.54,41.904 C216.099993,40.3199921 214.204012,39.528 211.852,39.528 C209.499988,39.528 207.592007,40.3919914 206.128,42.12 C204.663993,43.8480086 203.932,46.0319868 203.932,48.672 C203.932,54.3360283 206.571974,57.168 211.852,57.168 C214.252012,57.168 216.159993,56.3160085 217.576,54.612 C218.992007,52.9079915 219.7,50.760013 219.7,48.168 Z M239.716,22.608 C239.716,23.7120055 239.308004,24.6719959 238.492,25.488 C237.675996,26.3040041 236.716006,26.712 235.612,26.712 C234.507994,26.712 233.548004,26.3040041 232.732,25.488 C231.915996,24.6719959 231.508,23.7120055 231.508,22.608 C231.508,21.5039945 231.915996,20.5440041 232.732,19.728 C233.548004,18.9119959 234.507994,18.504 235.612,18.504 C236.716006,18.504 237.675996,18.9119959 238.492,19.728 C239.308004,20.5440041 239.716,21.5039945 239.716,22.608 Z M239.14,63 L232.156,63 L232.156,34.56 L239.14,34.56 L239.14,63 Z M252.82,37.152 C254.78801,34.7999882 257.691981,33.624 261.532,33.624 C268.060033,33.624 271.324,37.6319599 271.324,45.648 L271.324,63 L264.412,63 L264.412,47.952 C264.412,41.95197 262.564018,38.952 258.868,38.952 C254.83598,38.952 252.82,42.1679678 252.82,48.6 L252.82,63 L245.836,63 L245.836,34.56 L252.82,34.56 L252.82,37.152 Z M290.908,41.112 L290.908,47.736 L276.796,47.736 L276.796,41.112 L290.908,41.112 Z M303.292,37.08 C305.068009,34.7759885 307.803982,33.624 311.5,33.624 C314.716016,33.624 317.259991,35.1119851 319.132,38.088 C320.956009,35.1119851 323.90798,33.624 327.988,33.624 C333.98803,33.624 336.988,37.5119611 336.988,45.288 L336.988,63 L330.076,63 L330.076,48.024 C330.076,41.9759698 328.420017,38.952 325.108,38.952 C321.795983,38.952 320.14,42.3119664 320.14,49.032 L320.14,63 L313.156,63 L313.156,48.6 C313.156,42.1679678 311.692015,38.952 308.764,38.952 C305.115982,38.952 303.292,42.3119664 303.292,49.032 L303.292,63 L296.308,63 L296.308,34.56 L303.292,34.56 L303.292,37.08 Z M370.756,48.744 C370.756,53.2080223 369.388014,56.8559858 366.652,59.688 C363.915986,62.5200142 360.328022,63.936 355.888,63.936 C351.447978,63.936 347.836014,62.5200142 345.052,59.688 C342.267986,56.8559858 340.876,53.2200222 340.876,48.78 C340.876,44.3399778 342.243986,40.7040142 344.98,37.872 C347.716014,35.0399858 351.315978,33.624 355.78,33.624 C360.244022,33.624 363.855986,35.027986 366.616,37.836 C369.376014,40.644014 370.756,44.2799777 370.756,48.744 Z M347.932,48.888 C347.932,51.5280132 348.675993,53.6879916 350.164,55.368 C351.652007,57.0480084 353.571988,57.888 355.924,57.888 C358.276012,57.888 360.159993,56.988009 361.576,55.188 C362.992007,53.387991 363.7,51.2520124 363.7,48.78 C363.7,46.3079876 362.980007,44.172009 361.54,42.372 C360.099993,40.571991 358.216012,39.672 355.888,39.672 C353.559988,39.672 351.652007,40.5359914 350.164,42.264 C348.675993,43.9920086 347.932,46.1999866 347.932,48.888 Z M374.572,13.824 L381.556,13.824 L381.556,37.152 C383.57201,34.7999882 386.57198,33.624 390.556,33.624 C394.300019,33.624 397.407988,35.1119851 399.88,38.088 C402.352012,41.0640149 403.588,44.5679798 403.588,48.6 C403.588,52.9680218 402.364012,56.6159854 399.916,59.544 C397.467988,62.4720146 394.300019,63.936 390.412,63.936 C386.235979,63.936 383.332008,62.736012 381.7,60.336 L381.556,63 L374.572,63 L374.572,13.824 Z M396.46,48.744 C396.46,46.343988 395.716007,44.2320091 394.228,42.408 C392.739993,40.5839909 390.844012,39.672 388.54,39.672 C386.235988,39.672 384.364007,40.571991 382.924,42.372 C381.483993,44.172009 380.764,46.3079876 380.764,48.78 C380.764,51.2520124 381.519992,53.387991 383.032,55.188 C384.544008,56.988009 386.403989,57.888 388.612,57.888 C391.012012,57.888 392.919993,57.0120088 394.336,55.26 C395.752007,53.5079912 396.46,51.336013 396.46,48.744 Z M406.396,34.56 L415.036,34.56 L420.94,42.552 L425.98,34.56 L434.836,34.56 L424.9,47.448 L436.708,63 L427.924,63 L420.148,52.344 L412.948,63 L404.02,63 L416.116,47.52 L406.396,34.56 Z" id="umi-plugin-mobx" fill="#A6DFFE"></path>
            <path d="M19.444,31.56 L19.444,46.968 C19.444,52.4880276 21.3639808,55.248 25.204,55.248 C29.0440192,55.248 30.964,52.4880276 30.964,46.968 L30.964,31.56 L37.948,31.56 L37.948,48.264 C37.948,56.7120422 33.7000425,60.936 25.204,60.936 C16.7079575,60.936 12.46,56.7120422 12.46,48.264 L12.46,31.56 L19.444,31.56 Z M50.62,34.08 C52.3960089,31.7759885 55.1319815,30.624 58.828,30.624 C62.0440161,30.624 64.5879906,32.1119851 66.46,35.088 C68.2840091,32.1119851 71.2359796,30.624 75.316,30.624 C81.31603,30.624 84.316,34.5119611 84.316,42.288 L84.316,60 L77.404,60 L77.404,45.024 C77.404,38.9759698 75.7480166,35.952 72.436,35.952 C69.1239834,35.952 67.468,39.3119664 67.468,46.032 L67.468,60 L60.484,60 L60.484,45.6 C60.484,39.1679678 59.0200146,35.952 56.092,35.952 C52.4439818,35.952 50.62,39.3119664 50.62,46.032 L50.62,60 L43.636,60 L43.636,31.56 L50.62,31.56 L50.62,34.08 Z M98.716,19.608 C98.716,20.7120055 98.3080041,21.6719959 97.492,22.488 C96.6759959,23.3040041 95.7160055,23.712 94.612,23.712 C93.5079945,23.712 92.5480041,23.3040041 91.732,22.488 C90.9159959,21.6719959 90.508,20.7120055 90.508,19.608 C90.508,18.5039945 90.9159959,17.5440041 91.732,16.728 C92.5480041,15.9119959 93.5079945,15.504 94.612,15.504 C95.7160055,15.504 96.6759959,15.9119959 97.492,16.728 C98.3080041,17.5440041 98.716,18.5039945 98.716,19.608 Z M98.14,60 L91.156,60 L91.156,31.56 L98.14,31.56 L98.14,60 Z M118.588,38.112 L118.588,44.736 L104.476,44.736 L104.476,38.112 L118.588,38.112 Z M130.972,34.152 C132.98801,31.7999882 135.98798,30.624 139.972,30.624 C143.716019,30.624 146.823988,32.1119851 149.296,35.088 C151.768012,38.0640149 153.004,41.5679798 153.004,45.6 C153.004,49.9680218 151.780012,53.6159854 149.332,56.544 C146.883988,59.4720146 143.716019,60.936 139.828,60.936 C135.651979,60.936 132.748008,59.736012 131.116,57.336 L130.972,72.024 L123.988,72.024 L123.988,31.56 L130.972,31.56 L130.972,34.152 Z M145.876,45.744 C145.876,43.2959878 145.180007,41.172009 143.788,39.372 C142.395993,37.571991 140.476012,36.672 138.028,36.672 C135.771989,36.672 133.900007,37.5839909 132.412,39.408 C130.923993,41.2320091 130.18,43.3319881 130.18,45.708 C130.18,48.0840119 130.971992,50.2079906 132.556,52.08 C134.140008,53.9520094 135.96399,54.888 138.028,54.888 C140.476012,54.888 142.395993,54.0240086 143.788,52.296 C145.180007,50.5679914 145.876,48.3840132 145.876,45.744 Z M164.308,60 L157.324,60 L157.324,10.824 L164.308,10.824 L164.308,60 Z M177.412,31.56 L177.412,46.968 C177.412,52.4880276 179.331981,55.248 183.172,55.248 C187.012019,55.248 188.932,52.4880276 188.932,46.968 L188.932,31.56 L195.916,31.56 L195.916,48.264 C195.916,56.7120422 191.668042,60.936 183.172,60.936 C174.675958,60.936 170.428,56.7120422 170.428,48.264 L170.428,31.56 L177.412,31.56 Z M228.676,57.552 C228.676,67.2960487 224.140045,72.168 215.068,72.168 C211.03598,72.168 207.628014,71.0760109 204.844,68.892 C202.059986,66.7079891 200.668,63.8640175 200.668,60.36 L208.084,60.36 C208.084,61.752007 208.779993,63.1199933 210.172,64.464 C211.564007,65.8080067 213.123991,66.48 214.852,66.48 C219.412023,66.48 221.692,63.7440274 221.692,58.272 L221.692,56.472 C219.72399,58.9680125 216.73602,60.216 212.728,60.216 C208.71998,60.216 205.576011,58.8240139 203.296,56.04 C201.015989,53.2559861 199.876,49.8480202 199.876,45.816 C199.876,41.4479782 201.099988,37.8000146 203.548,34.872 C205.996012,31.9439854 209.17598,30.48 213.088,30.48 C217.00002,30.48 219.867991,31.7039878 221.692,34.152 L221.692,31.416 L228.676,31.416 L228.676,57.552 Z M222.7,45.168 C222.7,42.575987 221.980007,40.4880079 220.54,38.904 C219.099993,37.3199921 217.204012,36.528 214.852,36.528 C212.499988,36.528 210.592007,37.3919914 209.128,39.12 C207.663993,40.8480086 206.932,43.0319868 206.932,45.672 C206.932,51.3360283 209.571974,54.168 214.852,54.168 C217.252012,54.168 219.159993,53.3160085 220.576,51.612 C221.992007,49.9079915 222.7,47.760013 222.7,45.168 Z M242.716,19.608 C242.716,20.7120055 242.308004,21.6719959 241.492,22.488 C240.675996,23.3040041 239.716006,23.712 238.612,23.712 C237.507994,23.712 236.548004,23.3040041 235.732,22.488 C234.915996,21.6719959 234.508,20.7120055 234.508,19.608 C234.508,18.5039945 234.915996,17.5440041 235.732,16.728 C236.548004,15.9119959 237.507994,15.504 238.612,15.504 C239.716006,15.504 240.675996,15.9119959 241.492,16.728 C242.308004,17.5440041 242.716,18.5039945 242.716,19.608 Z M242.14,60 L235.156,60 L235.156,31.56 L242.14,31.56 L242.14,60 Z M255.82,34.152 C257.78801,31.7999882 260.691981,30.624 264.532,30.624 C271.060033,30.624 274.324,34.6319599 274.324,42.648 L274.324,60 L267.412,60 L267.412,44.952 C267.412,38.95197 265.564018,35.952 261.868,35.952 C257.83598,35.952 255.82,39.1679678 255.82,45.6 L255.82,60 L248.836,60 L248.836,31.56 L255.82,31.56 L255.82,34.152 Z M293.908,38.112 L293.908,44.736 L279.796,44.736 L279.796,38.112 L293.908,38.112 Z M306.292,34.08 C308.068009,31.7759885 310.803982,30.624 314.5,30.624 C317.716016,30.624 320.259991,32.1119851 322.132,35.088 C323.956009,32.1119851 326.90798,30.624 330.988,30.624 C336.98803,30.624 339.988,34.5119611 339.988,42.288 L339.988,60 L333.076,60 L333.076,45.024 C333.076,38.9759698 331.420017,35.952 328.108,35.952 C324.795983,35.952 323.14,39.3119664 323.14,46.032 L323.14,60 L316.156,60 L316.156,45.6 C316.156,39.1679678 314.692015,35.952 311.764,35.952 C308.115982,35.952 306.292,39.3119664 306.292,46.032 L306.292,60 L299.308,60 L299.308,31.56 L306.292,31.56 L306.292,34.08 Z M373.756,45.744 C373.756,50.2080223 372.388014,53.8559858 369.652,56.688 C366.915986,59.5200142 363.328022,60.936 358.888,60.936 C354.447978,60.936 350.836014,59.5200142 348.052,56.688 C345.267986,53.8559858 343.876,50.2200222 343.876,45.78 C343.876,41.3399778 345.243986,37.7040142 347.98,34.872 C350.716014,32.0399858 354.315978,30.624 358.78,30.624 C363.244022,30.624 366.855986,32.027986 369.616,34.836 C372.376014,37.644014 373.756,41.2799777 373.756,45.744 Z M350.932,45.888 C350.932,48.5280132 351.675993,50.6879916 353.164,52.368 C354.652007,54.0480084 356.571988,54.888 358.924,54.888 C361.276012,54.888 363.159993,53.988009 364.576,52.188 C365.992007,50.387991 366.7,48.2520124 366.7,45.78 C366.7,43.3079876 365.980007,41.172009 364.54,39.372 C363.099993,37.571991 361.216012,36.672 358.888,36.672 C356.559988,36.672 354.652007,37.5359914 353.164,39.264 C351.675993,40.9920086 350.932,43.1999866 350.932,45.888 Z M377.572,10.824 L384.556,10.824 L384.556,34.152 C386.57201,31.7999882 389.57198,30.624 393.556,30.624 C397.300019,30.624 400.407988,32.1119851 402.88,35.088 C405.352012,38.0640149 406.588,41.5679798 406.588,45.6 C406.588,49.9680218 405.364012,53.6159854 402.916,56.544 C400.467988,59.4720146 397.300019,60.936 393.412,60.936 C389.235979,60.936 386.332008,59.736012 384.7,57.336 L384.556,60 L377.572,60 L377.572,10.824 Z M399.46,45.744 C399.46,43.343988 398.716007,41.2320091 397.228,39.408 C395.739993,37.5839909 393.844012,36.672 391.54,36.672 C389.235988,36.672 387.364007,37.571991 385.924,39.372 C384.483993,41.172009 383.764,43.3079876 383.764,45.78 C383.764,48.2520124 384.519992,50.387991 386.032,52.188 C387.544008,53.988009 389.403989,54.888 391.612,54.888 C394.012012,54.888 395.919993,54.0120088 397.336,52.26 C398.752007,50.5079912 399.46,48.336013 399.46,45.744 Z M409.396,31.56 L418.036,31.56 L423.94,39.552 L428.98,31.56 L437.836,31.56 L427.9,44.448 L439.708,60 L430.924,60 L423.148,49.344 L415.948,60 L407.02,60 L419.116,44.52 L409.396,31.56 Z" id="umi-plugin-mobx" fill="#000000"></path>
        </g>
    </g>
</svg>